<svg width="32" height="32" viewBox="0 0 32 32" fill="none" xmlns="http://www.w3.org/2000/svg">
<path d="M16 29.3327C23.3638 29.3327 29.3334 23.3631 29.3334 15.9993C29.3334 8.63555 23.3638 2.66602 16 2.66602C8.63622 2.66602 2.66669 8.63555 2.66669 15.9993C2.66669 23.3631 8.63622 29.3327 16 29.3327Z" fill="#E7E8EB"/>
<path d="M23.1867 12.3466L19.1334 8.29334C19.04 8.2 18.9333 8.13333 18.8133 8.08C18.5733 7.97333 18.2934 7.97333 18.0534 8.08C17.8134 8.18667 17.6134 8.37334 17.5067 8.62667C17.4534 8.74667 17.4267 8.87998 17.4267 9.01331V22.76C17.4267 23.3067 17.88 23.76 18.4267 23.76C18.9734 23.76 19.4267 23.3067 19.4267 22.76V11.4267L21.7733 13.7733C21.9733 13.9733 22.2267 14.0667 22.48 14.0667C22.7333 14.0667 22.9867 13.9733 23.1867 13.7733C23.5734 13.36 23.5734 12.7333 23.1867 12.3466Z" fill="#12193D"/>
<path d="M14.5733 9C14.5733 8.45333 14.12 8 13.5733 8C13.0267 8 12.5733 8.45333 12.5733 9V20.3333L10.2267 17.9867C9.84002 17.6 9.19998 17.6 8.81332 17.9867C8.42665 18.3733 8.42665 19.0133 8.81332 19.4L12.8667 23.4533C12.96 23.5467 13.0667 23.6133 13.1867 23.6667C13.3067 23.72 13.44 23.7467 13.5733 23.7467C13.7067 23.7467 13.8267 23.72 13.96 23.6667C14.2 23.56 14.4 23.3733 14.5067 23.12C14.56 23 14.5867 22.8667 14.5867 22.7333V9H14.5733Z" fill="#12193D"/>
</svg>
