<svg width="24" height="24" viewBox="0 0 24 24" fill="none" xmlns="http://www.w3.org/2000/svg">
  <path d="M16.19 2H7.81C4.17 2 2 4.17 2 7.81V16.18C2 19.83 4.17 22 7.81 22H16.18C19.82 22 21.99 19.83 21.99 16.19V7.81C22 4.17 19.83 2 16.19 2Z" fill="#21D969"/>
  <path d="M17.85 13.5305C17.77 13.3505 17.63 13.2005 17.44 13.1205C17.35 13.0805 17.25 13.0605 17.15 13.0605H6.85001C6.44001 13.0605 6.10001 13.4005 6.10001 13.8105C6.10001 14.2205 6.44001 14.5605 6.85001 14.5605H15.35L13.59 16.3205C13.3 16.6105 13.3 17.0905 13.59 17.3805C13.74 17.5305 13.93 17.6005 14.12 17.6005C14.31 17.6005 14.5 17.5305 14.65 17.3805L17.69 14.3405C17.76 14.2705 17.81 14.1905 17.85 14.1005C17.92 13.9205 17.92 13.7105 17.85 13.5305Z" fill="var(--dark-500)"/>
  <path d="M6.15 10.4698C6.23 10.6498 6.37 10.7998 6.56 10.8798C6.65 10.9198 6.75 10.9398 6.85 10.9398H17.16C17.57 10.9398 17.91 10.5998 17.91 10.1898C17.91 9.77984 17.57 9.43984 17.16 9.43984H8.66L10.42 7.67984C10.71 7.38984 10.71 6.90984 10.42 6.61984C10.13 6.32984 9.65 6.32984 9.36 6.61984L6.32 9.64984C6.25 9.71984 6.19 9.80984 6.15 9.89984C6.08 10.0798 6.08 10.2898 6.15 10.4698Z" fill="var(--dark-500)"/>
</svg>
