<svg width="32" height="32" viewBox="0 0 32 32" fill="none" xmlns="http://www.w3.org/2000/svg">
<path d="M15.9998 29.3327C23.3636 29.3327 29.3332 23.3631 29.3332 15.9993C29.3332 8.63555 23.3636 2.66602 15.9998 2.66602C8.63604 2.66602 2.6665 8.63555 2.6665 15.9993C2.6665 23.3631 8.63604 29.3327 15.9998 29.3327Z" fill="#3A3F5D"/>
<path d="M23.1868 12.3466L19.1334 8.29334C19.0401 8.2 18.9334 8.13333 18.8134 8.08C18.5734 7.97333 18.2934 7.97333 18.0534 8.08C17.8134 8.18667 17.6134 8.37334 17.5068 8.62667C17.4534 8.74667 17.4268 8.87998 17.4268 9.01331V22.76C17.4268 23.3067 17.8801 23.76 18.4268 23.76C18.9734 23.76 19.4268 23.3067 19.4268 22.76V11.4267L21.7734 13.7733C21.9734 13.9733 22.2267 14.0667 22.4801 14.0667C22.7334 14.0667 22.9868 13.9733 23.1868 13.7733C23.5734 13.36 23.5734 12.7333 23.1868 12.3466Z" fill="white"/>
<path d="M14.5734 9C14.5734 8.45333 14.1201 8 13.5734 8C13.0268 8 12.5734 8.45333 12.5734 9V20.3333L10.2268 17.9867C9.84014 17.6 9.2001 17.6 8.81344 17.9867C8.42677 18.3733 8.42677 19.0133 8.81344 19.4L12.8668 23.4533C12.9601 23.5467 13.0668 23.6133 13.1868 23.6667C13.3068 23.72 13.4401 23.7467 13.5734 23.7467C13.7068 23.7467 13.8268 23.72 13.9601 23.6667C14.2001 23.56 14.4001 23.3733 14.5068 23.12C14.5601 23 14.5868 22.8667 14.5868 22.7333V9H14.5734Z" fill="white"/>
</svg>
