<svg width="32" height="32" viewBox="0 0 32 32" fill="none" xmlns="http://www.w3.org/2000/svg">
<path d="M21.5647 27.6066L21.5648 27.6067L21.5721 27.5994L28.2521 20.9194C28.756 20.4155 28.756 19.5856 28.2521 19.0818C27.7483 18.578 26.9184 18.578 26.4145 19.0818L19.7345 25.7618C19.2307 26.2656 19.2307 27.0955 19.7345 27.5994C19.9938 27.8586 20.3247 27.9806 20.6533 27.9806C20.9908 27.9806 21.3154 27.8393 21.5647 27.6066Z" fill="#888C9E" stroke="#888C9E" stroke-width="0.6"/>
<path d="M4.66667 21.2863H27.3333C28.0457 21.2863 28.6333 20.6987 28.6333 19.9863C28.6333 19.274 28.0457 18.6863 27.3333 18.6863H4.66667C3.95432 18.6863 3.36667 19.274 3.36667 19.9863C3.36667 20.6987 3.95432 21.2863 4.66667 21.2863Z" fill="#888C9E" stroke="#888C9E" stroke-width="0.6"/>
<path d="M3.74787 12.9314C4.00709 13.1906 4.33806 13.3126 4.66666 13.3126C4.99835 13.3126 5.34169 13.1752 5.58546 12.9314L12.2655 6.2514C12.7693 5.74758 12.7693 4.91763 12.2655 4.41381C11.7616 3.90998 10.9317 3.90998 10.4279 4.41381L3.74787 11.0938C3.24404 11.5976 3.24404 12.4276 3.74787 12.9314Z" fill="#888C9E" stroke="#888C9E" stroke-width="0.6"/>
<path d="M4.66667 13.3137H27.3333C28.0457 13.3137 28.6333 12.726 28.6333 12.0137C28.6333 11.3013 28.0457 10.7137 27.3333 10.7137H4.66667C3.95432 10.7137 3.36667 11.3013 3.36667 12.0137C3.36667 12.726 3.95432 13.3137 4.66667 13.3137Z" fill="#888C9E" stroke="#888C9E" stroke-width="0.6"/>
</svg>
