<svg width="20" height="20" viewBox="0 0 20 20" fill="none" xmlns="http://www.w3.org/2000/svg">
  <path d="M9.14997 5.15834L6.05834 2.06665C6 2.00832 5.92499 1.95833 5.84166 1.925C5.83333 1.925 5.82497 1.92499 5.81664 1.91666C5.74997 1.89166 5.67496 1.875 5.59996 1.875C5.43329 1.875 5.27499 1.94164 5.15832 2.05831L2.05829 5.15834C1.81663 5.4 1.81663 5.8 2.05829 6.04167C2.29996 6.28333 2.70001 6.28333 2.94168 6.04167L4.9833 3.99999V17.5C4.9833 17.8417 5.26664 18.125 5.6083 18.125C5.94997 18.125 6.2333 17.8417 6.2333 17.5V4.00833L8.26664 6.04167C8.39164 6.16667 8.54999 6.22498 8.70833 6.22498C8.86666 6.22498 9.02497 6.16667 9.14997 6.04167C9.39164 5.8 9.39164 5.40834 9.14997 5.15834Z" fill="var(--primary-black)"/>
  <path opacity="0.4" d="M17.9417 13.9583C17.7 13.7167 17.2999 13.7167 17.0583 13.9583L15.0166 16V2.5C15.0166 2.15833 14.7333 1.875 14.3916 1.875C14.05 1.875 13.7666 2.15833 13.7666 2.5V15.9917L11.7333 13.9583C11.4916 13.7167 11.0916 13.7167 10.85 13.9583C10.6083 14.2 10.6083 14.6 10.85 14.8417L13.9416 17.9333C13.9999 17.9917 14.075 18.0417 14.1583 18.075C14.1666 18.075 14.175 18.075 14.1833 18.0833C14.25 18.1083 14.325 18.125 14.4 18.125C14.5667 18.125 14.725 18.0584 14.8416 17.9417L17.9417 14.8417C18.1833 14.5917 18.1833 14.2 17.9417 13.9583Z" fill="var(--primary-black)"/>
</svg>
