<svg width="16" height="17" viewBox="0 0 16 17" fill="none" xmlns="http://www.w3.org/2000/svg">
  <g clip-path="url(#clip0_1831_3183)">
    <path d="M7 11.207L4.5 8.7065L5.2065 8L7 9.793L10.7925 6L11.5 6.7075L7 11.207Z" fill="#888C9E"/>
    <path d="M8 1.5C6.61553 1.5 5.26216 1.91054 4.11101 2.67971C2.95987 3.44888 2.06266 4.54213 1.53285 5.82122C1.00303 7.1003 0.86441 8.50777 1.13451 9.86563C1.4046 11.2235 2.07129 12.4708 3.05026 13.4497C4.02922 14.4287 5.2765 15.0954 6.63437 15.3655C7.99224 15.6356 9.3997 15.497 10.6788 14.9672C11.9579 14.4373 13.0511 13.5401 13.8203 12.389C14.5895 11.2378 15 9.88447 15 8.5C15 6.64348 14.2625 4.86301 12.9497 3.55025C11.637 2.2375 9.85652 1.5 8 1.5V1.5ZM8 14.5C6.81332 14.5 5.65328 14.1481 4.66658 13.4888C3.67989 12.8295 2.91085 11.8925 2.45673 10.7961C2.0026 9.69974 1.88378 8.49334 2.11529 7.32946C2.3468 6.16557 2.91825 5.09647 3.75736 4.25736C4.59648 3.41824 5.66558 2.8468 6.82946 2.61529C7.99335 2.38378 9.19975 2.5026 10.2961 2.95672C11.3925 3.41085 12.3295 4.17988 12.9888 5.16658C13.6481 6.15327 14 7.31331 14 8.5C14 10.0913 13.3679 11.6174 12.2426 12.7426C11.1174 13.8679 9.5913 14.5 8 14.5Z" fill="#888C9E"/>
  </g>
  <defs>
    <clipPath id="clip0_1831_3183">
      <rect width="16" height="16" fill="white" transform="translate(0 0.5)"/>
    </clipPath>
  </defs>
</svg>
