<svg width="16" height="17" viewBox="0 0 16 17" fill="none" xmlns="http://www.w3.org/2000/svg">
  <g clip-path="url(#clip0_210_1625)">
    <path d="M8 1.5C6.61553 1.5 5.26216 1.91054 4.11101 2.67971C2.95987 3.44888 2.06266 4.54213 1.53285 5.82122C1.00303 7.1003 0.86441 8.50776 1.13451 9.86563C1.4046 11.2235 2.07129 12.4708 3.05026 13.4497C4.02922 14.4287 5.2765 15.0954 6.63437 15.3655C7.99224 15.6356 9.3997 15.497 10.6788 14.9672C11.9579 14.4373 13.0511 13.5401 13.8203 12.389C14.5895 11.2378 15 9.88447 15 8.5C15 6.64348 14.2625 4.86301 12.9497 3.55025C11.637 2.2375 9.85652 1.5 8 1.5ZM7 11.2954L4.5 8.7954L5.2953 8L7 9.7046L10.705 6L11.5029 6.79295L7 11.2954Z" fill="#21D969"/>
  </g>
  <defs>
    <clipPath id="clip0_210_1625">
      <rect width="16" height="16" fill="white" transform="translate(0 0.5)"/>
    </clipPath>
  </defs>
</svg>
