<svg width="25" height="24" viewBox="0 0 25 24" fill="none" xmlns="http://www.w3.org/2000/svg">
  <path d="M16.5 12.9V17.1C16.5 20.6 15.1 22 11.6 22H7.4C3.9 22 2.5 20.6 2.5 17.1V12.9C2.5 9.4 3.9 8 7.4 8H11.6C15.1 8 16.5 9.4 16.5 12.9Z" stroke="var(--primary-black)" stroke-width="1.5" stroke-linecap="round" stroke-linejoin="round"/>
  <path opacity="0.4" d="M22.5 6.9V11.1C22.5 14.6 21.1 16 17.6 16H16.5V12.9C16.5 9.4 15.1 8 11.6 8H8.5V6.9C8.5 3.4 9.9 2 13.4 2H17.6C21.1 2 22.5 3.4 22.5 6.9Z" stroke="var(--primary-black)" stroke-width="1.5" stroke-linecap="round" stroke-linejoin="round"/>
</svg>
