<svg width="24" height="24" viewBox="0 0 24 24" fill="none" xmlns="http://www.w3.org/2000/svg">
<path d="M16.7 18.9794H7.29999C6.87999 18.9794 6.40999 18.6494 6.26999 18.2494L2.12999 6.66938C1.53999 5.00938 2.22999 4.49938 3.64999 5.51938L7.54999 8.30938C8.19999 8.75938 8.93999 8.52938 9.21999 7.79938L10.98 3.10938C11.54 1.60938 12.47 1.60938 13.03 3.10938L14.79 7.79938C15.07 8.52938 15.81 8.75938 16.45 8.30938L20.11 5.69937C21.67 4.57937 22.42 5.14938 21.78 6.95938L17.74 18.2694C17.59 18.6494 17.12 18.9794 16.7 18.9794Z" stroke="#3A3F5D" stroke-width="1.5" stroke-linecap="round" stroke-linejoin="round"/>
<path d="M6.5 22H17.5" stroke="#21D969" stroke-width="1.5" stroke-linecap="round" stroke-linejoin="round"/>
<path d="M9.5 14H14.5" stroke="#21D969" stroke-width="1.5" stroke-linecap="round" stroke-linejoin="round"/>
</svg>
