<svg width="24" height="24" viewBox="0 0 24 24" fill="none" xmlns="http://www.w3.org/2000/svg">
<path d="M19 18.1998C19.2 18.1998 19.4 18.0998 19.5 17.9998C19.8 17.6998 19.8 17.1998 19.5 16.8998L5.49998 2.8998C5.19998 2.5998 4.69998 2.5998 4.39997 2.8998C4.09997 3.1998 4.09997 3.6998 4.39997 3.9998L18.4 17.9998C18.6 18.1998 18.8 18.1998 19 18.1998Z" fill="var(--primary-black)"/>
<path d="M8.69999 18.1994H19C19.4 18.1994 19.8 17.8994 19.8 17.3994V7.19941C19.8 6.79941 19.5 6.39941 19 6.39941C18.5 6.39941 18.2 6.69941 18.2 7.19941V16.6994H8.69999C8.29999 16.6994 7.89999 16.9994 7.89999 17.4994C7.89999 17.9994 8.29999 18.1994 8.69999 18.1994Z" fill="var(--primary-black)"/>
<path opacity="0.4" d="M3.49999 22.8002H20.5C20.9 22.8002 21.3 22.5002 21.3 22.0002C21.3 21.5002 21 21.2002 20.5 21.2002H3.49999C3.09999 21.2002 2.69999 21.5002 2.69999 22.0002C2.69999 22.5002 3.09999 22.8002 3.49999 22.8002Z" fill="var(--primary-black)"/>
</svg>
