<svg width="24" height="24" viewBox="0 0 24 24" fill="none" xmlns="http://www.w3.org/2000/svg">
<path d="M21.27 9.18029C20.98 8.72029 20.67 8.29029 20.35 7.89029C19.98 7.42029 19.28 7.38029 18.86 7.80029L15.86 10.8003C16.08 11.4603 16.12 12.2203 15.92 13.0103C15.57 14.4203 14.43 15.5603 13.02 15.9103C12.23 16.1103 11.47 16.0703 10.81 15.8503C10.81 15.8503 9.37999 17.2803 8.34999 18.3103C7.84999 18.8103 8.00999 19.6903 8.67999 19.9503C9.74999 20.3603 10.86 20.5703 12 20.5703C13.78 20.5703 15.51 20.0503 17.09 19.0803C18.7 18.0803 20.15 16.6103 21.32 14.7403C22.27 13.2303 22.22 10.6903 21.27 9.18029Z" fill="#B0B2BE"/>
<path d="M14.02 9.97965L9.98 14.0196C9.47 13.4996 9.14 12.7796 9.14 11.9996C9.14 10.4296 10.42 9.13965 12 9.13965C12.78 9.13965 13.5 9.46965 14.02 9.97965Z" fill="#B0B2BE"/>
<path d="M18.25 5.74969L14.86 9.13969C14.13 8.39969 13.12 7.95969 12 7.95969C9.76 7.95969 7.96 9.76969 7.96 11.9997C7.96 13.1197 8.41 14.1297 9.14 14.8597L5.76 18.2497H5.75C4.64 17.3497 3.62 16.1997 2.75 14.8397C1.75 13.2697 1.75 10.7197 2.75 9.14969C3.91 7.32969 5.33 5.89969 6.91 4.91969C8.49 3.95969 10.22 3.42969 12 3.42969C14.23 3.42969 16.39 4.24969 18.25 5.74969Z" fill="#B0B2BE"/>
<path d="M14.86 12.0001C14.86 13.5701 13.58 14.8601 12 14.8601C11.94 14.8601 11.89 14.8601 11.83 14.8401L14.84 11.8301C14.86 11.8901 14.86 11.9401 14.86 12.0001Z" fill="#B0B2BE"/>
<path d="M21.77 2.22988C21.47 1.92988 20.98 1.92988 20.68 2.22988L2.23 20.6899C1.93 20.9899 1.93 21.4799 2.23 21.7799C2.38 21.9199 2.57 21.9999 2.77 21.9999C2.97 21.9999 3.16 21.9199 3.31 21.7699L21.77 3.30988C22.08 3.00988 22.08 2.52988 21.77 2.22988Z" fill="#B0B2BE"/>
</svg>
