<svg width="98" height="98" viewBox="0 0 98 98" fill="none" xmlns="http://www.w3.org/2000/svg">
  <path d="M73.5 16.3337H64.3125V11.2295C64.3125 9.55533 62.9242 8.16699 61.25 8.16699C59.5758 8.16699 58.1875 9.55533 58.1875 11.2295V86.7712C58.1875 88.4453 59.5758 89.8337 61.25 89.8337C62.9242 89.8337 64.3125 88.4453 64.3125 86.7712V81.667H73.5C82.5242 81.667 89.8333 74.3578 89.8333 65.3337V32.667C89.8333 23.6428 82.5242 16.3337 73.5 16.3337Z" fill="#21D969"/>
  <path d="M26.5416 16.333C17.5175 16.333 10.2083 23.6422 10.2083 32.6663V65.333C10.2083 74.3572 17.5175 81.6663 26.5416 81.6663H46.9583C49.2041 81.6663 51.0416 79.8288 51.0416 77.583V20.4163C51.0416 18.1705 49.2041 16.333 46.9583 16.333H26.5416ZM27.2358 50.5513C27.0316 51.0413 26.7458 51.4905 26.3783 51.8988C25.97 52.2663 25.5208 52.5522 25.0308 52.7563C24.5408 52.9605 24.01 53.083 23.4791 53.083C22.9483 53.083 22.4175 52.9605 21.9275 52.7563C21.4375 52.5522 20.9883 52.2663 20.58 51.8988C20.2125 51.4905 19.9266 51.0413 19.6816 50.5513C19.4775 50.0613 19.3958 49.5305 19.3958 48.9997C19.3958 47.938 19.845 46.8763 20.58 46.1005C20.7841 45.9372 20.9883 45.7738 21.1925 45.6105C21.4375 45.4472 21.6825 45.3247 21.9275 45.243C22.1725 45.1205 22.4175 45.0388 22.6625 44.998C24.0508 44.7122 25.4391 45.1613 26.3783 46.1005C27.1133 46.8763 27.5625 47.938 27.5625 48.9997C27.5625 49.5305 27.44 50.0613 27.2358 50.5513ZM41.5275 50.5513C41.3233 51.0413 41.0375 51.4905 40.67 51.8988C40.2616 52.2663 39.8125 52.5522 39.3225 52.7563C38.8325 52.9605 38.3016 53.083 37.7708 53.083C37.24 53.083 36.7091 52.9605 36.2191 52.7563C35.7291 52.5522 35.28 52.2663 34.8716 51.8988C34.0958 51.123 33.6875 50.1022 33.6875 48.9997C33.6875 48.4688 33.81 47.938 34.0141 47.448C34.2183 46.9172 34.5041 46.5088 34.8716 46.1005C36.3825 44.5897 39.1183 44.5897 40.67 46.1005C41.405 46.8763 41.8541 47.938 41.8541 48.9997C41.8541 49.5305 41.7316 50.0613 41.5275 50.5513Z" fill="#21D969"/>
</svg>
