<svg width="24" height="24" viewBox="0 0 24 24" fill="none" xmlns="http://www.w3.org/2000/svg">
<path fill-rule="evenodd" clip-rule="evenodd" d="M12 22.2222C17.6456 22.2222 22.2222 17.6456 22.2222 12C22.2222 6.35442 17.6456 1.77778 12 1.77778C6.35442 1.77778 1.77778 6.35442 1.77778 12C1.77778 17.6456 6.35442 22.2222 12 22.2222ZM12 24C18.6274 24 24 18.6274 24 12C24 5.37258 18.6274 0 12 0C5.37258 0 0 5.37258 0 12C0 18.6274 5.37258 24 12 24Z" fill="#FF5E5B"/>
<path fill-rule="evenodd" clip-rule="evenodd" d="M13.8604 12.0026V7.16074C13.8604 6.39641 13.2413 5.77734 12.477 5.77734H8.32676C7.56243 5.77734 6.94336 6.39641 6.94336 7.16074V18.2279H13.8604V13.0402V12.0026ZM8.3268 10.6192H12.477V7.16074H8.3268V10.6192Z" fill="#21D969"/>
<rect x="19.1113" y="3.55469" width="1.77778" height="22.2222" transform="rotate(45 19.1113 3.55469)" fill="#FF5E5B"/>
<path fill-rule="evenodd" clip-rule="evenodd" d="M17.6137 8.74606L17.624 8.73568L15.0475 6.16602L14.3143 6.89922L15.7737 8.3587C15.1235 8.60772 14.6601 9.2337 14.6601 9.97036C14.6601 10.9249 15.4348 11.6996 16.3894 11.6996C16.6349 11.6996 16.8701 11.6477 17.0811 11.5544V16.5415C17.0811 16.9219 16.7698 17.2332 16.3894 17.2332C16.0089 17.2332 15.6977 16.9219 15.6977 16.5415V13.4289C15.6977 12.6645 15.0786 12.0455 14.3143 12.0455H13.6226V13.083H14.6601V16.5415C14.6601 17.4961 15.4348 18.2708 16.3894 18.2708C17.3439 18.2708 18.1186 17.4961 18.1186 16.5415V9.97036C18.1186 9.49309 17.9249 9.06078 17.6137 8.74606ZM15.6977 9.97036C15.6977 10.3508 16.009 10.6621 16.3894 10.6621C16.7699 10.6621 17.0811 10.3508 17.0811 9.97036C17.0811 9.58993 16.7699 9.27866 16.3894 9.27866C16.009 9.27866 15.6977 9.58993 15.6977 9.97036Z" fill="#21D969"/>
</svg>
