<svg width="24" height="24" viewBox="0 0 24 24" fill="none" xmlns="http://www.w3.org/2000/svg">
  <path d="M9.57 18.8191C9.38 18.8191 9.19 18.7491 9.04 18.5991L2.97 12.5291C2.68 12.2391 2.68 11.7591 2.97 11.4691L9.04 5.39914C9.33 5.10914 9.81 5.10914 10.1 5.39914C10.39 5.68914 10.39 6.16914 10.1 6.45914L4.56 11.9991L10.1 17.5391C10.39 17.8291 10.39 18.3091 10.1 18.5991C9.96 18.7491 9.76 18.8191 9.57 18.8191Z" fill="var(--navigate-icon)"/>
  <path d="M20.5 12.75H3.67001C3.26001 12.75 2.92001 12.41 2.92001 12C2.92001 11.59 3.26001 11.25 3.67001 11.25H20.5C20.91 11.25 21.25 11.59 21.25 12C21.25 12.41 20.91 12.75 20.5 12.75Z" fill="var(--navigate-icon)"/>
</svg>
