<svg width="25" height="24" viewBox="0 0 25 24" fill="none" xmlns="http://www.w3.org/2000/svg">
<path d="M24.5002 12.2668C24.5002 11.2801 24.4185 10.5601 24.2417 9.81348H12.7451V14.2668H19.4934C19.3574 15.3735 18.6227 17.0401 16.99 18.1601L16.9671 18.3092L20.6021 21.0688L20.854 21.0935C23.1668 19.0001 24.5002 15.9201 24.5002 12.2668Z" fill="#4285F4"/>
<path d="M12.7445 24.0002C16.0505 24.0002 18.826 22.9335 20.8533 21.0935L16.9893 18.1601C15.9553 18.8668 14.5676 19.3601 12.7445 19.3601C9.5064 19.3601 6.75812 17.2669 5.77843 14.3735L5.63483 14.3855L1.85509 17.2522L1.80566 17.3868C3.81925 21.3068 7.95531 24.0002 12.7445 24.0002Z" fill="#34A853"/>
<path d="M5.77886 14.3731C5.52036 13.6265 5.37076 12.8264 5.37076 11.9998C5.37076 11.1731 5.52036 10.3731 5.76526 9.62643L5.75841 9.46741L1.93131 6.55469L1.80609 6.61306C0.976196 8.23974 0.5 10.0664 0.5 11.9998C0.5 13.9331 0.976196 15.7597 1.80609 17.3864L5.77886 14.3731Z" fill="#FBBC05"/>
<path d="M12.7445 4.63997C15.0438 4.63997 16.5947 5.6133 17.4791 6.42669L20.9349 3.12C18.8125 1.18667 16.0505 0 12.7445 0C7.95531 0 3.81925 2.69331 1.80566 6.61328L5.76483 9.62666C6.75812 6.73333 9.5064 4.63997 12.7445 4.63997Z" fill="#EB4335"/>
</svg>