<svg width="34" height="34" viewBox="0 0 34 34" fill="none" xmlns="http://www.w3.org/2000/svg">
<path d="M6.55912 6.92742L14.8608 3.22992C16.0791 2.69159 17.9208 2.69159 19.1391 3.22992L27.4408 6.92742C29.5375 7.86242 29.8491 9.13742 29.8491 9.81742C29.8491 10.4974 29.5375 11.7724 27.4408 12.7074L19.1391 16.4049C18.53 16.6741 17.765 16.8158 17 16.8158C16.235 16.8158 15.47 16.6741 14.8608 16.4049L6.55912 12.7074C4.46245 11.7724 4.15079 10.4974 4.15079 9.81742C4.15079 9.13742 4.44829 7.86242 6.55912 6.92742Z" fill="#292D32"/>
<path opacity="0.4" d="M18.6132 23.9052L18.6132 23.9052L18.6119 23.9058C18.104 24.1234 17.5523 24.2397 17 24.2397C16.448 24.2397 15.8959 24.1235 15.4013 23.9053L15.401 23.9052L5.85271 19.6552L5.8526 19.6551C5.10218 19.32 4.44018 18.7033 3.96601 17.9713C3.49186 17.2394 3.20088 16.3849 3.20088 15.5688C3.20088 14.9328 3.71315 14.4205 4.34921 14.4205C4.98527 14.4205 5.49754 14.9328 5.49754 15.5688C5.49754 15.9336 5.64784 16.354 5.88864 16.7238C6.12946 17.0936 6.45237 17.3999 6.78365 17.5456L6.78404 17.5458L16.3318 21.7956C16.3319 21.7956 16.332 21.7957 16.3322 21.7957C16.7598 21.9827 17.2546 21.9827 17.6822 21.7957C17.6823 21.7956 17.6824 21.7956 17.6825 21.7956L27.2302 17.5458L27.2306 17.5456C27.5615 17.4 27.8845 17.0905 28.1255 16.7186C28.3665 16.3467 28.5167 15.9263 28.5167 15.5688C28.5167 14.9328 29.029 14.4205 29.665 14.4205C30.3011 14.4205 30.8134 14.9328 30.8134 15.5688C30.8134 16.3919 30.5225 17.2464 30.0482 17.9767C29.5739 18.7071 28.9119 19.3201 28.1617 19.6551L28.1615 19.6552L18.6132 23.9052Z" fill="#1C1C1E" stroke="#1C1C1E" stroke-width="0.2"/>
<path opacity="0.4" d="M18.6132 30.9325L18.6132 30.9326L18.6119 30.9331C18.104 31.1508 17.5523 31.267 17 31.267C16.448 31.267 15.8959 31.1509 15.4013 30.9327L15.401 30.9325L5.85271 26.6825L5.85231 26.6824C4.24437 25.9581 3.20088 24.3643 3.20088 22.5962C3.20088 21.9601 3.71315 21.4479 4.34921 21.4479C4.98527 21.4479 5.49754 21.9601 5.49754 22.5962C5.49754 23.4491 6.01254 24.2348 6.78354 24.5729L6.78404 24.5732L16.3318 28.8229C16.3319 28.8229 16.332 28.823 16.3321 28.823C16.7597 29.01 17.2546 29.01 17.6822 28.823C17.6823 28.823 17.6824 28.8229 17.6825 28.8229L27.23 24.5733C27.23 24.5733 27.2301 24.5732 27.2301 24.5732C28.016 24.2209 28.5167 23.4489 28.5167 22.5962C28.5167 21.9601 29.029 21.4479 29.665 21.4479C30.3011 21.4479 30.8134 21.9601 30.8134 22.5962C30.8134 24.3638 29.7704 25.9723 28.1614 26.6826C28.1614 26.6826 28.1613 26.6826 28.1613 26.6827L18.6132 30.9325Z" fill="#1C1C1E" stroke="#1C1C1E" stroke-width="0.2"/>
</svg>
