<svg width="20" height="20" viewBox="0 0 20 20" fill="none" xmlns="http://www.w3.org/2000/svg">
<circle cx="10" cy="10" r="3.5" fill="#F9A708" stroke="#F9A708"/>
<path d="M12.8792 2.53636C13.8593 2.91451 14.7554 3.48201 15.5163 4.20647C16.2771 4.93093 16.8878 5.79815 17.3135 6.75862C17.7391 7.71909 17.9715 8.75399 17.9972 9.80425C18.0229 10.8545 17.8415 11.8996 17.4634 12.8797C17.0852 13.8599 16.5177 14.756 15.7933 15.5168C15.0688 16.2776 14.2016 16.8883 13.2411 17.314C12.2807 17.7397 11.2458 17.972 10.1955 17.9977C9.14523 18.0235 8.10019 17.8421 7.12003 17.4639C6.13987 17.0858 5.2438 16.5183 4.48296 15.7938C3.72212 15.0694 3.11143 14.2021 2.68575 13.2417C2.26007 12.2812 2.02773 11.2463 2.002 10.196C1.97628 9.14577 2.15767 8.10073 2.53582 7.12057C2.91397 6.14041 3.48148 5.24433 4.20594 4.4835C4.93039 3.72266 5.79761 3.11197 6.75808 2.68628C7.71855 2.2606 8.75346 2.02826 9.80372 2.00254C10.854 1.97682 11.899 2.15821 12.8792 2.53636L12.8792 2.53636Z" stroke="#F0E3C8" stroke-width="2.66667"/>
<path d="M12.8792 2.53636C14.4554 3.14447 15.7986 4.23595 16.7163 5.65439" stroke="#F9A708" stroke-width="2.66667" stroke-linecap="round"/>
</svg>
