<svg width="16" height="17" viewBox="0 0 16 17" fill="none" xmlns="http://www.w3.org/2000/svg">
<path d="M4.47333 3.25966L4.52001 5.78633C4.52667 6.13299 4.30664 6.59299 4.02664 6.79966L2.37332 8.053C1.31332 8.853 1.48666 9.833 2.75332 10.233L4.90664 10.9063C5.26664 11.0197 5.64664 11.413 5.73998 11.7797L6.25332 13.7397C6.65999 15.2863 7.67333 15.4397 8.51333 14.0797L9.68667 12.1797C9.90001 11.833 10.4067 11.573 10.8067 11.593L13.0333 11.7063C14.6266 11.7863 15.08 10.8663 14.04 9.65299L12.72 8.11966C12.4733 7.83299 12.36 7.29967 12.4733 6.93967L13.1466 4.78633C13.54 3.51966 12.8333 2.81967 11.5733 3.233L9.60664 3.87967C9.2733 3.98633 8.77331 3.91299 8.49331 3.70633L6.43997 2.22633C5.3333 1.42633 4.44667 1.893 4.47333 3.25966Z" fill="#21D969"/>
<path opacity="0.4" d="M1.70644 14.1464L3.72646 12.1264C3.91979 11.9331 4.23979 11.9331 4.43312 12.1264C4.62646 12.3198 4.62646 12.6398 4.43312 12.8331L2.41311 14.8531C2.31311 14.9531 2.18646 14.9998 2.05979 14.9998C1.93313 14.9998 1.80644 14.9531 1.70644 14.8531C1.51311 14.6598 1.51311 14.3398 1.70644 14.1464Z" fill="#21D969"/>
</svg>