<svg width="24" height="24" viewBox="0 0 24 24" fill="none" xmlns="http://www.w3.org/2000/svg">
  <path d="M19.381 6.28571H4.14286C3.5181 6.28571 3 5.76762 3 5.14286C3 4.5181 3.5181 4 4.14286 4H19.381C20.0057 4 20.5238 4.5181 20.5238 5.14286C20.5238 5.76762 20.0057 6.28571 19.381 6.28571Z" fill="var(--navigate-icon)"/>
  <path d="M19.381 13.1431H4.14286C3.5181 13.1431 3 12.625 3 12.0003C3 11.3755 3.5181 10.8574 4.14286 10.8574H19.381C20.0057 10.8574 20.5238 11.3755 20.5238 12.0003C20.5238 12.625 20.0057 13.1431 19.381 13.1431Z" fill="var(--navigate-icon)"/>
  <path d="M19.381 19.9996H4.14286C3.5181 19.9996 3 19.4815 3 18.8567C3 18.232 3.5181 17.7139 4.14286 17.7139H19.381C20.0057 17.7139 20.5238 18.232 20.5238 18.8567C20.5238 19.4815 20.0057 19.9996 19.381 19.9996Z" fill="var(--navigate-icon)"/>
</svg>
