<svg width="24" height="24" viewBox="0 0 24 24" fill="none" xmlns="http://www.w3.org/2000/svg">
<path d="M17 18.4297H13L8.54999 21.3897C7.88999 21.8297 7 21.3598 7 20.5598V18.4297C4 18.4297 2 16.4297 2 13.4297V7.42969C2 4.42969 4 2.42969 7 2.42969H17C20 2.42969 22 4.42969 22 7.42969V13.4297C22 16.4297 20 18.4297 17 18.4297Z" stroke="#3A3F5D" stroke-width="1.5" stroke-miterlimit="10" stroke-linecap="round" stroke-linejoin="round"/>
<path d="M12 11.3594V11.1494C12 10.4694 12.42 10.1094 12.84 9.8194C13.25 9.5394 13.66 9.17941 13.66 8.51941C13.66 7.59941 12.92 6.85938 12 6.85938C11.08 6.85938 10.34 7.59941 10.34 8.51941" stroke="#21D969" stroke-width="1.5" stroke-linecap="round" stroke-linejoin="round"/>
<path d="M11.9955 13.75H12.0045" stroke="#21D969" stroke-width="1.5" stroke-linecap="round" stroke-linejoin="round"/>
</svg>
