<svg width="25" height="25" viewBox="0 0 25 25" fill="none" xmlns="http://www.w3.org/2000/svg">
<path d="M20.4819 7.79579L17.2617 4.57557C16.9593 4.28878 16.5584 4.12891 16.1417 4.12891C15.725 4.12891 15.3241 4.28878 15.0217 4.57557L11.5802 8.01715C11.2863 8.31586 11.1216 8.71809 11.1216 9.13711C11.1216 9.55612 11.2863 9.95835 11.5802 10.2571L14.8056 13.4773C15.1021 13.7734 15.504 13.9397 15.923 13.9397C16.342 13.9397 16.7439 13.7734 17.0403 13.4773L20.4819 10.0357C20.7781 9.73823 20.9443 9.33554 20.9443 8.91575C20.9443 8.49597 20.7781 8.09327 20.4819 7.79579Z" fill="#21D969"/>
<path d="M4.12161 1.92981C6.42932 3.61995 8.62794 5.45419 10.7044 7.42157C10.7465 7.36887 14.0721 4.03797 14.0721 4.03797C11.8217 2.6255 7.74238 0.485718 4.35351 0.981136C4.25049 0.997521 4.15461 1.04396 4.07789 1.11464C4.00116 1.18531 3.94702 1.27707 3.92225 1.3784C3.89748 1.47973 3.90319 1.58611 3.93866 1.68421C3.97412 1.78231 4.03777 1.86775 4.12161 1.92981Z" fill="#21D969"/>
<path d="M20.998 11.0059C20.1651 11.8374 17.6935 14.3104 17.6407 14.3526C19.5615 16.3981 21.3551 18.5595 23.0113 20.8246C23.0738 20.9076 23.1593 20.9705 23.2572 21.0054C23.3551 21.0403 23.4611 21.0458 23.562 21.0211C23.663 20.9964 23.7545 20.9427 23.8252 20.8666C23.8959 20.7904 23.9428 20.6952 23.96 20.5927C24.4501 17.2829 22.4632 13.3617 20.998 11.0059Z" fill="#21D969"/>
<path d="M10.6202 10.748L1.39897 19.964C1.15256 20.2081 0.957166 20.4988 0.824157 20.8191C0.691148 21.1394 0.623183 21.4829 0.624218 21.8298C0.631544 22.3473 0.790358 22.8514 1.08103 23.2796C1.37171 23.7079 1.78151 24.0416 2.25977 24.2395C2.73804 24.4374 3.26382 24.4909 3.77212 24.3932C4.28043 24.2956 4.74898 24.0511 5.11988 23.6901L14.3411 14.4637C14.1371 14.3307 11.0925 11.3122 10.6202 10.748Z" fill="#99E3B6"/>
</svg>
