<svg width="32" height="32" viewBox="0 0 32 32" fill="none" xmlns="http://www.w3.org/2000/svg">
<path d="M15.9998 29.3327C23.3636 29.3327 29.3332 23.3631 29.3332 15.9993C29.3332 8.63555 23.3636 2.66602 15.9998 2.66602C8.63604 2.66602 2.6665 8.63555 2.6665 15.9993C2.6665 23.3631 8.63604 29.3327 15.9998 29.3327Z" fill="#3A3F5D"/>
<mask id="mask0_6335_99414" style="mask-type:alpha" maskUnits="userSpaceOnUse" x="8" y="8" width="16" height="16">
<rect x="8.7998" y="8.5" width="14.4" height="15" fill="#D9D9D9"/>
</mask>
<g mask="url(#mask0_6335_99414)">
<path d="M20.789 13.1767L18.8569 11.2446C18.6754 11.0725 18.4349 10.9766 18.1849 10.9766C17.9348 10.9766 17.6943 11.0725 17.5129 11.2446L15.448 13.3095C15.2717 13.4887 15.1729 13.7301 15.1729 13.9815C15.1729 14.2329 15.2717 14.4742 15.448 14.6535L17.3833 16.5856C17.5611 16.7633 17.8022 16.8631 18.0536 16.8631C18.3051 16.8631 18.5462 16.7633 18.724 16.5856L20.789 14.5206C20.9667 14.3422 21.0665 14.1005 21.0665 13.8487C21.0665 13.5968 20.9667 13.3552 20.789 13.1767Z" fill="white"/>
<path d="M10.9729 9.65789C12.3576 10.672 13.6767 11.7725 14.9226 12.9529C14.9479 12.9213 16.9433 10.9228 16.9433 10.9228C15.593 10.0753 13.1454 8.79143 11.1121 9.08868C11.0503 9.09851 10.9927 9.12638 10.9467 9.16878C10.9007 9.21119 10.8682 9.26624 10.8533 9.32704C10.8385 9.38784 10.8419 9.45167 10.8632 9.51053C10.8844 9.56939 10.9226 9.62065 10.9729 9.65789Z" fill="white"/>
<path d="M21.0983 15.1055C20.5986 15.6044 19.1156 17.0882 19.084 17.1135C20.2365 18.3408 21.3126 19.6377 22.3063 20.9967C22.3438 21.0465 22.3951 21.0842 22.4539 21.1052C22.5126 21.1262 22.5762 21.1294 22.6367 21.1146C22.6973 21.0998 22.7522 21.0676 22.7947 21.0219C22.8371 20.9762 22.8652 20.9191 22.8755 20.8576C23.1696 18.8717 21.9774 16.519 21.0983 15.1055Z" fill="white"/>
<path d="M14.8716 14.9492L9.33888 20.4788C9.19104 20.6253 9.0738 20.7996 8.99399 20.9918C8.91419 21.184 8.87341 21.3901 8.87403 21.5982C8.87843 21.9088 8.97371 22.2112 9.14812 22.4682C9.32253 22.7251 9.5684 22.9254 9.85536 23.0441C10.1423 23.1629 10.4578 23.1949 10.7628 23.1363C11.0678 23.0777 11.3489 22.9311 11.5714 22.7144L17.1042 17.1786C16.9818 17.0988 15.155 15.2877 14.8716 14.9492Z" fill="white"/>
</g>
</svg>
