<svg width="25" height="26" viewBox="0 0 25 26" fill="none" xmlns="http://www.w3.org/2000/svg">
<path d="M20.4819 8.29579L17.2617 5.07557C16.9593 4.78878 16.5584 4.62891 16.1417 4.62891C15.725 4.62891 15.3241 4.78878 15.0217 5.07557L11.5802 8.51715C11.2863 8.81586 11.1216 9.21809 11.1216 9.63711C11.1216 10.0561 11.2863 10.4584 11.5802 10.7571L14.8056 13.9773C15.1021 14.2734 15.504 14.4397 15.923 14.4397C16.342 14.4397 16.7439 14.2734 17.0403 13.9773L20.4819 10.5357C20.7781 10.2382 20.9443 9.83554 20.9443 9.41575C20.9443 8.99597 20.7781 8.59327 20.4819 8.29579Z" fill="#DBDDE2"/>
<path d="M4.12161 2.42981C6.42932 4.11995 8.62794 5.95419 10.7044 7.92157C10.7465 7.86887 14.0721 4.53797 14.0721 4.53797C11.8217 3.1255 7.74238 0.985718 4.35351 1.48114C4.25049 1.49752 4.15461 1.54396 4.07789 1.61464C4.00116 1.68531 3.94702 1.77707 3.92225 1.8784C3.89748 1.97973 3.90319 2.08611 3.93866 2.18421C3.97412 2.28231 4.03777 2.36775 4.12161 2.42981Z" fill="#888C9E"/>
<path d="M20.998 11.5059C20.1651 12.3374 17.6935 14.8104 17.6407 14.8526C19.5615 16.8981 21.3551 19.0595 23.0113 21.3246C23.0738 21.4076 23.1593 21.4705 23.2572 21.5054C23.3551 21.5403 23.4611 21.5458 23.562 21.5211C23.663 21.4964 23.7545 21.4427 23.8252 21.3666C23.8959 21.2904 23.9428 21.1952 23.96 21.0927C24.4501 17.7829 22.4632 13.8617 20.998 11.5059Z" fill="#888C9E"/>
<path d="M10.6202 11.248L1.39897 20.464C1.15256 20.7081 0.957166 20.9988 0.824157 21.3191C0.691148 21.6394 0.623183 21.9829 0.624218 22.3298C0.631544 22.8473 0.790358 23.3514 1.08103 23.7796C1.37171 24.2079 1.78151 24.5416 2.25977 24.7395C2.73804 24.9374 3.26382 24.9909 3.77212 24.8932C4.28043 24.7956 4.74898 24.5511 5.11988 24.1901L14.3411 14.9637C14.1371 14.8307 11.0925 11.8122 10.6202 11.248Z" fill="#DBDDE2"/>
</svg>
