<svg width="32" height="32" viewBox="0 0 32 32" fill="none" xmlns="http://www.w3.org/2000/svg">
<path d="M16 29.3327C23.3638 29.3327 29.3333 23.3631 29.3333 15.9993C29.3333 8.63555 23.3638 2.66602 16 2.66602C8.63621 2.66602 2.66667 8.63555 2.66667 15.9993C2.66667 23.3631 8.63621 29.3327 16 29.3327Z" fill="#E7E8EB"/>
<mask id="mask0_6335_99426" style="mask-type:alpha" maskUnits="userSpaceOnUse" x="8" y="8" width="16" height="16">
<rect x="8.7998" y="8.5" width="14.4" height="15" fill="#D9D9D9"/>
</mask>
<g mask="url(#mask0_6335_99426)">
<path d="M20.7889 13.1767L18.8567 11.2446C18.6753 11.0725 18.4348 10.9766 18.1848 10.9766C17.9347 10.9766 17.6942 11.0725 17.5128 11.2446L15.4478 13.3095C15.2715 13.4887 15.1727 13.7301 15.1727 13.9815C15.1727 14.2329 15.2715 14.4742 15.4478 14.6535L17.3831 16.5856C17.561 16.7633 17.8021 16.8631 18.0535 16.8631C18.3049 16.8631 18.5461 16.7633 18.7239 16.5856L20.7889 14.5206C20.9666 14.3422 21.0663 14.1005 21.0663 13.8487C21.0663 13.5968 20.9666 13.3552 20.7889 13.1767Z" fill="#12193D"/>
<path d="M10.9728 9.65789C12.3574 10.672 13.6766 11.7725 14.9225 12.9529C14.9478 12.9213 16.9431 10.9228 16.9431 10.9228C15.5929 10.0753 13.1453 8.79143 11.112 9.08868C11.0501 9.09851 10.9926 9.12638 10.9466 9.16878C10.9006 9.21119 10.8681 9.26624 10.8532 9.32704C10.8383 9.38784 10.8418 9.45167 10.863 9.51053C10.8843 9.56939 10.9225 9.62065 10.9728 9.65789Z" fill="#12193D"/>
<path d="M21.0987 15.1055C20.5989 15.6044 19.1159 17.0882 19.0843 17.1135C20.2368 18.3408 21.3129 19.6377 22.3066 20.9967C22.3442 21.0465 22.3955 21.0842 22.4542 21.1052C22.5129 21.1262 22.5765 21.1294 22.6371 21.1146C22.6977 21.0998 22.7526 21.0676 22.795 21.0219C22.8374 20.9762 22.8655 20.9191 22.8758 20.8576C23.1699 18.8717 21.9778 16.519 21.0987 15.1055Z" fill="#12193D"/>
<path d="M14.8719 14.9492L9.33922 20.4788C9.19137 20.6253 9.07413 20.7996 8.99433 20.9918C8.91452 21.184 8.87375 21.3901 8.87437 21.5982C8.87876 21.9088 8.97405 22.2112 9.14846 22.4682C9.32286 22.7251 9.56874 22.9254 9.8557 23.0441C10.1427 23.1629 10.4581 23.1949 10.7631 23.1363C11.0681 23.0777 11.3492 22.9311 11.5718 22.7144L17.1045 17.1786C16.9821 17.0988 15.1554 15.2877 14.8719 14.9492Z" fill="#12193D"/>
</g>
</svg>
