<svg width="32" height="32" viewBox="0 0 32 32" fill="none" xmlns="http://www.w3.org/2000/svg">
  <path d="M16 14.2529C15.04 14.2529 14.2533 15.0396 14.2533 15.9996C14.2533 16.9596 15.04 17.7463 16 17.7463C16.96 17.7463 17.7467 16.9596 17.7467 15.9996C17.7467 15.0396 16.96 14.2529 16 14.2529Z" fill="var(--primary-black)"/>
  <path d="M9.33334 14.2529C8.37334 14.2529 7.58667 15.0396 7.58667 15.9996C7.58667 16.9596 8.37334 17.7463 9.33334 17.7463C10.2933 17.7463 11.08 16.9596 11.08 15.9996C11.08 15.0396 10.2933 14.2529 9.33334 14.2529Z" fill="var(--primary-black)"/>
  <path d="M22.6667 14.2529C21.7067 14.2529 20.92 15.0396 20.92 15.9996C20.92 16.9596 21.7067 17.7463 22.6667 17.7463C23.6267 17.7463 24.4133 16.9596 24.4133 15.9996C24.4133 15.0396 23.6267 14.2529 22.6667 14.2529Z" fill="var(--primary-black)"/>
</svg>
