<svg width="32" height="32" viewBox="0 0 32 32" fill="none" xmlns="http://www.w3.org/2000/svg">
  <g opacity="0.6">
    <path d="M6.30961 21.3334C5.03416 20.597 4.59716 18.9661 5.33354 17.6906L12.9447 4.86503C13.6811 3.58958 15.312 3.15258 16.5874 3.88896L20.5041 6.15027L10.2263 23.5947L6.30961 21.3334Z" fill="#B0B2BE"/>
    <path d="M10.2214 23.5918L20.4992 6.14742L25.825 9.22228C27.1005 9.95866 27.5375 11.5896 26.8011 12.865L19.1899 25.6906C18.4536 26.9661 16.8226 27.4031 15.5472 26.6667L10.2214 23.5918Z" fill="#B0B2BE"/>
  </g>
  <path opacity="0.3" fill-rule="evenodd" clip-rule="evenodd" d="M20.3722 24H27.3334C28.438 24 29.3334 23.1046 29.3334 22V10C29.3334 8.89543 28.438 8 27.3334 8H23.7078L25.8249 9.22228C27.1004 9.95866 27.5373 11.5896 26.801 12.865L20.3722 24ZM11.1346 8L4.00011 20.3573C3.26374 21.6327 3.70072 23.2636 4.97611 24H4.66675C3.56218 24 2.66675 23.1046 2.66675 22V10C2.66675 8.89543 3.56218 8 4.66675 8H11.1346Z" fill="#B0B2BE"/>
  <g filter="url(#filter0_d_317_9712)">
    <path d="M2.66675 14C2.66675 12.8954 3.56218 12 4.66675 12H27.3334C28.438 12 29.3334 12.8954 29.3334 14V26C29.3334 27.1046 28.438 28 27.3334 28H4.66675C3.56218 28 2.66675 27.1046 2.66675 26V14Z" fill="#21D969"/>
  </g>
  <path d="M21.7224 24.6661L16.4444 19.6904L15.0925 20.9775L19.0053 24.6661H21.7224Z" fill="white"/>
  <path d="M11.6111 24.2732V24.6487H13.9248L16.1015 22.5865L14.7465 21.3027L11.6111 24.2732Z" fill="white"/>
  <path d="M17.483 15.333H11.6111V23.659L13.5276 21.8433V17.1486H17.483C18.245 17.1486 18.8649 17.736 18.8649 18.4579C18.8646 18.796 18.728 19.1201 18.4852 19.3594L17.6374 20.1625L18.9926 21.4464L19.848 20.636L19.8612 20.6232C20.1523 20.3399 20.3835 20.0027 20.5415 19.6311C20.6995 19.2594 20.781 18.8607 20.7815 18.4579C20.7815 16.7348 19.3017 15.333 17.483 15.333Z" fill="white"/>
  <defs>
    <filter id="filter0_d_317_9712" x="0.666748" y="9" width="30.6667" height="20" filterUnits="userSpaceOnUse" color-interpolation-filters="sRGB">
      <feFlood flood-opacity="0" result="BackgroundImageFix"/>
      <feColorMatrix in="SourceAlpha" type="matrix" values="0 0 0 0 0 0 0 0 0 0 0 0 0 0 0 0 0 0 127 0" result="hardAlpha"/>
      <feOffset dy="-1"/>
      <feGaussianBlur stdDeviation="1"/>
      <feComposite in2="hardAlpha" operator="out"/>
      <feColorMatrix type="matrix" values="0 0 0 0 0 0 0 0 0 0 0 0 0 0 0 0 0 0 0.15 0"/>
      <feBlend mode="normal" in2="BackgroundImageFix" result="effect1_dropShadow_317_9712"/>
      <feBlend mode="normal" in="SourceGraphic" in2="effect1_dropShadow_317_9712" result="shape"/>
    </filter>
  </defs>
</svg>
