<svg width="24" height="24" viewBox="0 0 24 24" fill="none" xmlns="http://www.w3.org/2000/svg">
  <path opacity="0.1" d="M12 22C17.5228 22 22 17.5228 22 12C22 6.47715 17.5228 2 12 2C6.47715 2 2 6.47715 2 12C2 17.5228 6.47715 22 12 22Z" fill="#21D969"/>
  <path d="M15.53 11.97C15.24 11.68 14.76 11.68 14.47 11.97L12.75 13.69V8.5C12.75 8.09 12.41 7.75 12 7.75C11.59 7.75 11.25 8.09 11.25 8.5V13.69L9.53 11.97C9.24 11.68 8.76 11.68 8.47 11.97C8.18 12.26 8.18 12.74 8.47 13.03L11.47 16.03C11.62 16.18 11.81 16.25 12 16.25C12.19 16.25 12.38 16.18 12.53 16.03L15.53 13.03C15.82 12.74 15.82 12.26 15.53 11.97Z" fill="#21D969"/>
</svg>
