<svg width="32" height="32" viewBox="0 0 32 32" fill="none" xmlns="http://www.w3.org/2000/svg">
  <path d="M12.4267 17.7066H16.5467V27.3066C16.5467 28.72 18.3067 29.3866 19.24 28.32L29.3333 16.8533C30.2133 15.8533 29.5067 14.2933 28.1733 14.2933H24.0533V4.69329C24.0533 3.27996 22.2933 2.61329 21.36 3.67996L11.2667 15.1466C10.4 16.1466 11.1067 17.7066 12.4267 17.7066Z" fill="#888C9E"/>
  <path opacity="0.4" d="M11.3333 6.33301H2C1.45333 6.33301 1 5.87967 1 5.33301C1 4.78634 1.45333 4.33301 2 4.33301H11.3333C11.88 4.33301 12.3333 4.78634 12.3333 5.33301C12.3333 5.87967 11.88 6.33301 11.3333 6.33301Z" fill="#888C9E"/>
  <path opacity="0.4" d="M10 27.667H2C1.45333 27.667 1 27.2137 1 26.667C1 26.1203 1.45333 25.667 2 25.667H10C10.5467 25.667 11 26.1203 11 26.667C11 27.2137 10.5467 27.667 10 27.667Z" fill="#888C9E"/>
  <path opacity="0.4" d="M6 17H2C1.45333 17 1 16.5467 1 16C1 15.4533 1.45333 15 2 15H6C6.54667 15 7 15.4533 7 16C7 16.5467 6.54667 17 6 17Z" fill="#A9A5AA"/>
</svg>
