<svg width="29" height="28" viewBox="0 0 29 28" fill="none" xmlns="http://www.w3.org/2000/svg">
<path d="M21.7945 23.8538H4.98046C4.24915 23.8538 3.65625 23.3166 3.65625 22.6539V1.19989C3.65631 0.537183 4.24915 0 4.98052 0H18.3725L23.1188 4.8609V22.6539C23.1187 23.3166 22.5259 23.8538 21.7945 23.8538Z" fill="#EFEDEF"/>
<path d="M19.8842 7.42271H8.11671C7.85918 7.42271 7.65039 7.23352 7.65039 7.00017C7.65039 6.76682 7.85918 6.57764 8.11671 6.57764H19.8843C20.1418 6.57764 20.3506 6.76682 20.3506 7.00017C20.3506 7.23358 20.1418 7.42271 19.8842 7.42271Z" fill="#B0B2BE"/>
<path d="M19.8855 10.3143H10.605C10.3475 10.3143 10.1387 10.1251 10.1387 9.89177C10.1387 9.65842 10.3475 9.46924 10.605 9.46924H19.8856C20.1431 9.46924 20.3519 9.65842 20.3519 9.89177C20.3518 10.1251 20.143 10.3143 19.8855 10.3143Z" fill="#B0B2BE"/>
<path d="M21.9267 3.21826V22.6539C21.9267 23.3166 21.3339 23.8538 20.6025 23.8538H22.4154C23.1467 23.8538 23.7396 23.3166 23.7396 22.6539V4.86097L21.9267 3.21826Z" fill="#888C9E"/>
<path d="M23.7375 4.8609H19.697C18.9658 4.8609 18.373 4.32378 18.373 3.66118V0L23.7375 4.8609Z" fill="#61667E"/>
<path d="M1.40846 28H25.9659C26.7438 28 27.3744 27.4287 27.3744 26.7238V14.059C27.3744 13.3541 26.7438 12.7827 25.9659 12.7827H9.25355L8.44813 10.5971C8.25619 10.0763 7.71813 9.7251 7.11217 9.7251H1.40846C0.630582 9.7251 0 10.2965 0 11.0013V26.7238C6.21753e-05 27.4287 0.630644 28 1.40846 28Z" fill="#060814"/>
<path d="M26.5935 12.7827H24.9033C25.6812 12.7827 26.3118 13.3541 26.3118 14.0589V26.7238C26.3118 27.4286 25.6812 28 24.9033 28H26.5935C27.3714 28 28.0019 27.4286 28.0019 26.7238V14.0589C28.0019 13.3541 27.3713 12.7827 26.5935 12.7827Z" fill="#060814"/>
<path d="M16.3327 19.6785C16.0751 19.6785 15.8664 19.4894 15.8664 19.256V18.1325C15.8664 17.201 15.03 16.4432 14.002 16.4432C12.974 16.4432 12.1377 17.201 12.1377 18.1325V19.256C12.1377 19.4894 11.9289 19.6785 11.6714 19.6785C11.4139 19.6785 11.2051 19.4894 11.2051 19.256V18.1325C11.2051 16.735 12.4598 15.5981 14.002 15.5981C15.5443 15.5981 16.799 16.735 16.799 18.1325V19.256C16.799 19.4894 16.5902 19.6785 16.3327 19.6785Z" fill="#E9FBF0"/>
<path d="M16.5982 24.7618H11.3289C10.9417 24.7618 10.6279 24.4774 10.6279 24.1266V19.891C10.6279 19.5402 10.9418 19.2559 11.3289 19.2559H16.5982C16.9854 19.2559 17.2993 19.5403 17.2993 19.891V24.1266C17.2993 24.4774 16.9854 24.7618 16.5982 24.7618Z" fill="#21D969"/>
<path d="M16.5986 19.2559H15.0879C15.4751 19.2559 15.7889 19.5403 15.7889 19.8911V24.1266C15.7889 24.4774 15.4751 24.7618 15.0879 24.7618H16.5986C16.9858 24.7618 17.2996 24.4774 17.2996 24.1266V19.8911C17.2996 19.5403 16.9857 19.2559 16.5986 19.2559Z" fill="#21D969"/>
<path d="M14.881 23.1403L14.4149 22.1579C14.7056 22.0124 14.8933 21.7187 14.853 21.389C14.8095 21.0332 14.4913 20.7449 14.0986 20.7056C13.5813 20.6538 13.1435 21.0194 13.1435 21.4776C13.1435 21.7707 13.3226 22.0256 13.587 22.1579L13.1209 23.1403C13.0811 23.2242 13.149 23.3176 13.2498 23.3176H14.7522C14.8529 23.3175 14.9208 23.2242 14.881 23.1403Z" fill="#E9FBF0"/>
</svg>