<svg width="24" height="25" viewBox="0 0 24 25" fill="none" xmlns="http://www.w3.org/2000/svg">
<rect y="0.5" width="24" height="24" rx="12" fill="#1C1C1E"/>
<path d="M18.9999 18.4998L12.2141 12.1025L10.476 13.7573L15.5067 18.4998H18.9999Z" fill="#21D969"/>
<path d="M6 17.9939V18.4767H8.97466L11.7733 15.8253L10.0311 14.1748L6 17.9939Z" fill="#21D969"/>
<path d="M13.5494 6.5H6V17.2046L8.46401 14.8703V8.83434H13.5494C14.5291 8.83434 15.3262 9.58946 15.3262 10.5176C15.3258 10.9523 15.1502 11.3691 14.838 11.6766L13.748 12.7093L15.4903 14.3599L16.5901 13.318L16.6071 13.3015C16.9814 12.9373 17.2787 12.5038 17.4817 12.026C17.6848 11.5482 17.7897 11.0355 17.7903 10.5176C17.7903 8.3023 15.8878 6.5 13.5494 6.5Z" fill="#21D969"/>
</svg>
