<svg width="24" height="24" viewBox="0 0 24 24" fill="none" xmlns="http://www.w3.org/2000/svg">
  <path d="M5.81023 5.43613C8.91727 2.44107 13.5412 2.56045 16.4168 5.43613C19.1667 8.186 19.3348 12.54 16.9212 15.486L21.1898 19.755L20.1291 20.8157L15.8601 16.5471C12.9141 18.9607 8.56011 18.7926 5.81023 16.0427C2.93456 13.1671 2.79934 8.33851 5.81023 5.43613ZM15.3562 6.49679C13.013 4.15364 9.21404 4.15364 6.8709 6.49679C4.52775 8.83993 4.52775 12.6389 6.8709 14.9821C9.21404 17.3252 13.013 17.3252 15.3562 14.9821C17.6993 12.6389 17.6993 8.83993 15.3562 6.49679Z" fill="var(--navigate-icon)"/>
</svg>
