<svg width="24" height="24" viewBox="0 0 24 24" fill="none" xmlns="http://www.w3.org/2000/svg">
<path opacity="0.4" d="M3.49999 22.8002H20.5C20.9 22.8002 21.3 22.5002 21.3 22.0002C21.3 21.5002 21 21.2002 20.5 21.2002H3.49999C3.09999 21.2002 2.69999 21.5002 2.69999 22.0002C2.69999 22.5002 3.09999 22.8002 3.49999 22.8002Z" fill="var(--primary-black)"/>
<path d="M4.99998 18.2004C5.19998 18.2004 5.39997 18.1004 5.49998 18.0004L19.5 4.00039C19.8 3.70039 19.8 3.30039 19.5 3.00039C19.2 2.70039 18.7 2.70039 18.4 3.00039L4.39997 17.0004C4.09997 17.3004 4.09997 17.8004 4.39997 18.1004C4.59997 18.2004 4.79998 18.2004 4.99998 18.2004Z" fill="var(--primary-black)"/>
<path d="M19 14.5002C19.4 14.5002 19.8 14.2002 19.8 13.7002V3.5002C19.8 3.1002 19.5 2.7002 19 2.7002H8.69999C8.29999 2.7002 7.89999 3.0002 7.89999 3.5002C7.89999 4.0002 8.19999 4.3002 8.69999 4.3002H18.2V13.8002C18.2 14.2002 18.6 14.5002 19 14.5002Z" fill="var(--primary-black)"/>
</svg>
