<svg width="32" height="32" viewBox="0 0 32 32" fill="none" xmlns="http://www.w3.org/2000/svg">
<g clip-path="url(#clip0_6996_77615)">
<circle cx="16" cy="26" r="16" fill="#060814"/>
<path d="M23.0083 31.5312H8.99219C7.95662 31.5312 7.11719 30.6918 7.11719 29.6562V2.34375C7.11719 1.30819 7.95662 0.46875 8.99219 0.46875H23.0084C24.0439 0.46875 24.8834 1.30819 24.8834 2.34375V29.6562C24.8833 30.6918 24.0439 31.5312 23.0083 31.5312Z" fill="#B0B2BE"/>
<path d="M23.0088 0.46875H21.1338C22.1694 0.46875 23.0088 1.30819 23.0088 2.34375V29.6562C23.0088 30.6918 22.1694 31.5312 21.1338 31.5312H23.0088C24.0444 31.5312 24.8838 30.6918 24.8838 29.6562V2.34375C24.8838 1.30819 24.0444 0.46875 23.0088 0.46875Z" fill="#B0B2BE"/>
<path d="M23.0083 32H8.99219C7.69981 32 6.64844 30.9486 6.64844 29.6562V2.34375C6.64844 1.05138 7.69981 0 8.99219 0H23.0084C24.3008 0 25.3521 1.05138 25.3521 2.34375V29.6562C25.3521 30.9486 24.3007 32 23.0083 32ZM8.99219 0.9375C8.21675 0.9375 7.58594 1.56831 7.58594 2.34375V29.6562C7.58594 30.4317 8.21675 31.0625 8.99219 31.0625H23.0084C23.7838 31.0625 24.4146 30.4317 24.4146 29.6562V2.34375C24.4146 1.56831 23.7838 0.9375 23.0084 0.9375H8.99219Z" fill="#090D1F"/>
<path d="M19.0061 2.9455H12.9941C12.649 2.9455 12.3691 2.66569 12.3691 2.3205V0.46875H19.6311V2.3205C19.6311 2.66569 19.3512 2.9455 19.0061 2.9455Z" fill="#090D1F"/>
<path d="M16 17.6758C19.2619 17.6758 21.9062 15.0315 21.9062 11.7695C21.9062 8.5076 19.2619 5.86328 16 5.86328C12.7381 5.86328 10.0938 8.5076 10.0938 11.7695C10.0938 15.0315 12.7381 17.6758 16 17.6758Z" fill="white"/>
<path d="M16 5.86328C15.6809 5.86328 15.3679 5.88891 15.0625 5.93766C17.8789 6.38691 20.0312 8.82672 20.0312 11.7695C20.0312 14.7124 17.8789 17.1522 15.0625 17.6014C15.3679 17.6501 15.6809 17.6758 16 17.6758C19.2619 17.6758 21.9062 15.0315 21.9062 11.7695C21.9062 8.50759 19.2619 5.86328 16 5.86328Z" fill="#F9F7F8"/>
<path d="M15.9999 12.7422C13.9859 12.7422 12.3322 14.2821 12.1504 16.2487C13.1842 17.138 14.5292 17.6757 15.9999 17.6757C17.4706 17.6757 18.8155 17.138 19.8494 16.2487C19.6676 14.2822 18.0139 12.7422 15.9999 12.7422Z" fill="#21D969"/>
<path d="M15.9999 12.7422C13.9859 12.7422 12.3322 14.2821 12.1504 16.2487C13.1842 17.138 14.5292 17.6757 15.9999 17.6757C17.4706 17.6757 18.8155 17.138 19.8494 16.2487C19.6676 14.2822 18.0139 12.7422 15.9999 12.7422Z" fill="#21D969"/>
<path d="M19.3067 14.6055C19.0571 15.0609 18.5264 15.8849 17.5508 16.581C16.8271 17.0973 15.982 17.4543 15.0664 17.601C15.3708 17.6493 15.6825 17.676 16.0005 17.676C17.4712 17.676 18.8161 17.1383 19.85 16.249C19.7947 15.6512 19.6027 15.0932 19.3067 14.6055Z" fill="#21D969"/>
<path d="M15.9998 13.5565C14.8733 13.5565 13.96 12.6432 13.96 11.5166V10.7386C13.96 9.61204 14.8732 8.69873 15.9998 8.69873C17.1264 8.69873 18.0397 9.61198 18.0397 10.7386V11.5166C18.0397 12.6432 17.1264 13.5565 15.9998 13.5565Z" fill="#A6F0C3"/>
<path d="M16 8.69873C15.6619 8.69873 15.3433 8.78148 15.0625 8.92711C15.7172 9.26667 16.1649 9.95017 16.1649 10.7386V11.5166C16.1649 12.305 15.7172 12.9885 15.0625 13.3281C15.3433 13.4737 15.6619 13.5565 16 13.5565C17.1266 13.5565 18.0399 12.6432 18.0399 11.5166V10.7386C18.0399 9.61198 17.1266 8.69873 16 8.69873Z" fill="#A6F0C3"/>
<path d="M21.4458 22.6758H10.5547C10.2095 22.6758 9.92969 22.396 9.92969 22.0508V21.1133C9.92969 20.7681 10.2095 20.4883 10.5547 20.4883H21.4459C21.7911 20.4883 22.0709 20.7681 22.0709 21.1133V22.0508C22.0708 22.396 21.791 22.6758 21.4458 22.6758Z" fill="white"/>
<path d="M21.4458 26.7383H10.5547C10.2095 26.7383 9.92969 26.4585 9.92969 26.1133V25.1758C9.92969 24.8306 10.2095 24.5508 10.5547 24.5508H21.4459C21.7911 24.5508 22.0709 24.8306 22.0709 25.1758V26.1133C22.0708 26.4585 21.791 26.7383 21.4458 26.7383Z" fill="white"/>
<path d="M21.4463 24.5508H19.5713C19.9165 24.5508 20.1963 24.8306 20.1963 25.1758V26.1133C20.1963 26.4585 19.9165 26.7383 19.5713 26.7383H21.4463C21.7915 26.7383 22.0713 26.4585 22.0713 26.1133V25.1758C22.0713 24.8306 21.7915 24.5508 21.4463 24.5508Z" fill="#F9F7F8"/>
<path d="M21.4463 20.4883H19.5713C19.9165 20.4883 20.1963 20.7681 20.1963 21.1133V22.0508C20.1963 22.396 19.9165 22.6758 19.5713 22.6758H21.4463C21.7915 22.6758 22.0713 22.396 22.0713 22.0508V21.1133C22.0713 20.7681 21.7915 20.4883 21.4463 20.4883Z" fill="#F9F7F8"/>
<path d="M22.0708 29.1875H9.92969C9.67081 29.1875 9.46094 28.9776 9.46094 28.7188C9.46094 28.4599 9.67081 28.25 9.92969 28.25H22.0709C22.3298 28.25 22.5396 28.4599 22.5396 28.7188C22.5396 28.9776 22.3297 29.1875 22.0708 29.1875Z" fill="white"/>
</g>
<defs>
<clipPath id="clip0_6996_77615">
<rect width="32" height="32" fill="white"/>
</clipPath>
</defs>
</svg>