<svg width="86" height="86" viewBox="0 0 86 86" fill="none" xmlns="http://www.w3.org/2000/svg">
  <path d="M43 0.125C34.5201 0.125 26.2307 2.63958 19.1799 7.35074C12.1292 12.0619 6.63379 18.7581 3.38868 26.5924C0.143577 34.4268 -0.705491 43.0476 0.94885 51.3645C2.60319 59.6814 6.68664 67.321 12.6828 73.3172C18.679 79.3134 26.3186 83.3968 34.6355 85.0512C42.9525 86.7055 51.5732 85.8564 59.4076 82.6113C67.242 79.3662 73.9381 73.8708 78.6493 66.8201C83.3604 59.7693 85.875 51.4799 85.875 43C85.875 31.6288 81.3578 20.7234 73.3172 12.6828C65.2766 4.64217 54.3712 0.125 43 0.125V0.125ZM36.875 60.1218L21.5625 44.8093L26.4337 39.9375L36.875 50.3782L59.5681 27.6875L64.455 32.5443L36.875 60.1218Z" fill="#21D969"/>
</svg>
