<svg width="34" height="34" viewBox="0 0 34 34" fill="none" xmlns="http://www.w3.org/2000/svg">
<path opacity="0.4" d="M10.3415 5.08558L7.0414 8.38572H29.75C30.3861 8.38572 30.9125 8.91216 30.9125 9.54822C30.9125 10.1843 30.3861 10.7107 29.75 10.7107H7.05559L10.3415 13.9967C10.7914 14.4466 10.7914 15.1899 10.3415 15.6398C10.1093 15.872 9.81422 15.9808 9.51996 15.9808C9.22569 15.9808 8.93069 15.872 8.69846 15.6398L3.4426 10.384C3.33369 10.2751 3.24126 10.1361 3.17965 9.98206L3.1725 9.96418V9.95799L3.17091 9.9564L3.16345 9.93401C3.11958 9.8024 3.0875 9.67723 3.0875 9.53404C3.0875 9.22389 3.21154 8.92941 3.42842 8.71254L8.69846 3.44249C9.14835 2.99261 9.89166 2.99261 10.3415 3.44249C10.7914 3.89238 10.7914 4.63569 10.3415 5.08558Z" fill="#1C1C1E" stroke="#1C1C1E" stroke-width="0.2"/>
<path d="M23.6585 28.9282L26.9586 25.6282H4.25C3.61394 25.6282 3.0875 25.1017 3.0875 24.4657C3.0875 23.8296 3.61394 23.3032 4.25 23.3032H26.9444L23.6585 20.0172C23.2086 19.5673 23.2086 18.824 23.6585 18.3741C24.1083 17.9242 24.8517 17.9242 25.3015 18.3741L30.5574 23.6299C30.6663 23.7388 30.7587 23.8778 30.8204 24.0318L30.8275 24.0497V24.0559L30.8277 24.0561L30.8353 24.0764C30.8811 24.1986 30.9125 24.3381 30.9125 24.4799C30.9125 24.79 30.7885 25.0845 30.5716 25.3014L25.3015 30.5714C25.0693 30.8036 24.7743 30.9123 24.48 30.9123C24.1858 30.9123 23.8907 30.8037 23.6585 30.5714C23.2086 30.1215 23.2086 29.3781 23.6585 28.9282Z" fill="#1C1C1E" stroke="#1C1C1E" stroke-width="0.2"/>
</svg>
