<svg id="Layer_1" data-name="Layer 1" xmlns="http://www.w3.org/2000/svg" xmlns:xlink="http://www.w3.org/1999/xlink" viewBox="0 0 44 44"><defs><style>.cls-1{fill:none;}.cls-2{fill:#53c17b;}.cls-3{clip-path:url(#clip-path);}.cls-4{fill:#7f594f;}.cls-5{fill:#1c393f;}.cls-6{fill:#fff;}.cls-7{fill:#f4cbd0;}.cls-8{fill:#65bab8;}.cls-9{fill:#c2f1f2;}.cls-10{fill:#f27261;}</style><clipPath id="clip-path"><circle class="cls-1" cx="22" cy="22" r="22"/></clipPath></defs><circle class="cls-2" cx="22" cy="22" r="22"/><g class="cls-3"><path class="cls-4" d="M18.09,28.16l8.25,1c-.62-4.58,4.93-4,4.93-4s4.27-.92,3.94-9c0,0,1-4.07-4.18-7.88-1.75-1.29-5.7-2-5.7-2a4.42,4.42,0,0,0-7.17.41S18.09,25.2,18.09,28.16Z"/><path class="cls-5" d="M27.49,30.33,17.1,29v-.87c0-2.93.07-21.29.07-21.48V6.35l.2-.27a5.6,5.6,0,0,1,4.41-2.44,5.5,5.5,0,0,1,4.07,1.72,17.78,17.78,0,0,1,5.76,2.15c5.14,3.78,4.74,7.89,4.59,8.76.31,8.74-4.52,9.88-4.72,9.93l-.16,0-.16,0c-.64-.06-2.5-.05-3.37.84a2.3,2.3,0,0,0-.47,2Zm-8.41-3,6.24.78a3.84,3.84,0,0,1,1.06-2.39c1.5-1.54,4-1.5,4.79-1.44.59-.22,3.31-1.57,3-8v-.14l0-.13c0-.14.73-3.52-3.81-6.86a17.08,17.08,0,0,0-5.29-1.86l-.35-.07-.23-.27a3.56,3.56,0,0,0-2.75-1.28A3.66,3.66,0,0,0,19.14,7C19.14,9.39,19.09,23,19.08,27.28Z"/><path class="cls-6" d="M16.81,38.61l-8.23,5s17.08,1.84,24.61,2.28C33.6,39,24,37.49,24,37.49c-1.68-2.2,4.69-6.57,6.35-7.35a3.54,3.54,0,0,0,2.29-.92,3.73,3.73,0,0,0,1.35-3.71,2.48,2.48,0,0,0-2.19-1.75c-.53,0-.34-4.09-.63-3.68-6.42-1.74-10.6-3.31-13.52-5.36-2.53,2.66-5.19,2.87-7.46,3.81-2.47,1-2.71,5.26-2.91,9.77.76,4,6.51,7.43,9.6,7Z"/><ellipse class="cls-7" cx="11.48" cy="28.82" rx="1.24" ry="2.17" transform="translate(-17.96 38.6) rotate(-86.65)"/><ellipse class="cls-7" cx="24.17" cy="29.06" rx="1.24" ry="2.17" transform="translate(-6.25 51.5) rotate(-86.65)"/><path class="cls-7" d="M17.5,37.9l-.59,0-8,5.24s16.76,2.37,24.29,2.81c-1.78-3.77-6.3-6.23-8.92-8a9.4,9.4,0,0,0-.55-2.67c2-.78,5.14-4.12,6.57-5.49.67-1.49.72-9.9,1.32-10.34,1.44-1.14-3.46.41-3.68-.4.51,2.92-.14,9.7-1.48,11.39a13.47,13.47,0,0,1-5.62,4.09,17.53,17.53,0,0,0,1.77,4c2.7,2.23,7,4,5.54,3.92l-14.93-.84a54.87,54.87,0,0,1,5.29-2.73c.64-.29-.15-.63-.15-.63Z"/><path class="cls-8" d="M24,35.36l.23,2.57a15.14,15.14,0,0,1,5.59,2.82,9.41,9.41,0,0,1,3.74,5.49s-13.12-.81-25.08-1.51c1.29-4.41,8.29-6.35,8.29-6.35l0-3"/><path class="cls-5" d="M33.6,47.23h-.06c-.14,0-13.26-.81-25.08-1.5a1,1,0,0,1-.75-.42,1,1,0,0,1-.14-.85c1.18-4,6.33-6.14,8.25-6.8l0-2.32,2,0,0,3a1,1,0,0,1-.73,1c-.05,0-5.15,1.46-7.06,4.48L32.2,45.16a8.78,8.78,0,0,0-2.92-3.61A15,15,0,0,0,24.1,38.9a1,1,0,0,1-.82-.88l-.23-2.57,2-.18.17,1.88a19.14,19.14,0,0,1,5.25,2.79,10.33,10.33,0,0,1,4.13,6.13,1,1,0,0,1-1,1.16Z"/><path class="cls-7" d="M31.53,24.52a3.88,3.88,0,0,1,2-.29c1,.18,1.65,6-3,5.7"/><path class="cls-5" d="M30.87,30.93h-.39l.12-2a2.18,2.18,0,0,0,2.27-1,3.78,3.78,0,0,0,.21-2.73,3.33,3.33,0,0,0-1.15.24l-.8-1.81a4.81,4.81,0,0,1,2.58-.35c1.38.25,1.63,2.44,1.47,3.76A4.15,4.15,0,0,1,30.87,30.93Z"/><path class="cls-5" d="M19.46,36.55c-.35,0-.71,0-1.07,0a12.41,12.41,0,0,1-8.87-4.17,12.58,12.58,0,0,1-3.11-9l.22-3.78a1,1,0,0,1,.54-.82.94.94,0,0,1,.82,0c.58,0,2.53-1,2.78-2a.94.94,0,0,1,.56-.68,1,1,0,0,1,.88,0c1.31.72,3.4-.13,4.56-1.86a1,1,0,0,1,.73-.44,1,1,0,0,1,.79.28,6.76,6.76,0,0,0,6,2,1,1,0,0,1,1.05.59c1.18,2.74,6,1.89,6.05,1.88a1,1,0,0,1,.84.23,1,1,0,0,1,.33.8l-.33,5.8a10.93,10.93,0,0,1-4,8.24A13.53,13.53,0,0,1,19.46,36.55ZM8.56,20.62l-.17,2.86v0A10.64,10.64,0,0,0,11,31a10.43,10.43,0,0,0,7.54,3.56A12,12,0,0,0,27,32a9,9,0,0,0,3.24-6.82l.27-4.62a11.92,11.92,0,0,1-2.05,0A5.92,5.92,0,0,1,23.9,18a8.63,8.63,0,0,1-6.18-1.88,6,6,0,0,1-5.46,2,6.14,6.14,0,0,1-2.79,2.17A5.07,5.07,0,0,1,8.56,20.62Zm-.41-1.83Z"/><circle class="cls-5" cx="23.16" cy="26.28" r="2.13"/><path class="cls-9" d="M18.44,6A10,10,0,0,0,9.63,9a16.89,16.89,0,0,0-3.86,8.44c-.37,1.75.43,5.31.43,5.31s1.17,4.76,2.7,7.12c2.79.24,5.46-.23,9.22-.84"/><path class="cls-5" d="M10.4,30.9c-.53,0-1.05,0-1.58-.07a1,1,0,0,1-.75-.45C6.47,27.91,5.29,23.16,5.24,23c-.09-.4-.84-3.83-.44-5.74A17.77,17.77,0,0,1,8.87,8.34L9,8.25A11,11,0,0,1,18.53,5l-.18,2a9,9,0,0,0-8,2.72,15.76,15.76,0,0,0-3.61,8,15.88,15.88,0,0,0,.43,4.89,31.69,31.69,0,0,0,2.31,6.39,37.73,37.73,0,0,0,8-.78L18,28l.31,2-.51.08A46.85,46.85,0,0,1,10.4,30.9Z"/><polygon class="cls-10" points="9.82 24.66 11.15 27.49 14.53 27.49 15.09 24.26 9.82 24.66"/><path class="cls-5" d="M14.53,28.26H11.15a.77.77,0,0,1-.7-.44L9.12,25a.77.77,0,0,1,0-.72.78.78,0,0,1,.61-.38l5.27-.4a.72.72,0,0,1,.62.25.76.76,0,0,1,.19.65l-.55,3.23A.78.78,0,0,1,14.53,28.26Zm-2.89-1.54h2.24l.28-1.62L11,25.34Z"/><polyline class="cls-9" points="17.13 15.78 12.97 16.01 8.77 10.08"/><path class="cls-5" d="M13,17a1,1,0,0,1-.81-.42L8,10.65,9.57,9.51,13.46,15l3.62-.2.11,2L13,17Z"/><path class="cls-8" d="M8.77,15.78,6.49,14.59a15.29,15.29,0,0,0,.59,11l2.51-4.38Z"/><path class="cls-5" d="M7.08,26.59h0A1,1,0,0,1,6.19,26a16.21,16.21,0,0,1-.63-11.78,1,1,0,0,1,.57-.59,1,1,0,0,1,.81.05L9.22,14.9a1,1,0,0,1,.53.73l.82,5.44a1,1,0,0,1-.12.64L7.94,26.09A1,1,0,0,1,7.08,26.59ZM7.08,16a14,14,0,0,0,.2,7.24L8.56,21l-.7-4.61Z"/><line class="cls-8" x1="18.19" y1="24.05" x2="9.59" y2="21.22"/><rect class="cls-5" x="12.9" y="18.11" width="1.98" height="9.05" transform="translate(-11.95 28.75) rotate(-71.77)"/><path class="cls-5" d="M10.65,30.92a18.26,18.26,0,0,1-1.86-.09l.22-2a33.68,33.68,0,0,0,8.16-.59V5h2V29.89l-.79.17A44.75,44.75,0,0,1,10.65,30.92Z"/><rect class="cls-5" x="19.77" y="36.4" width="1.54" height="8.32"/></g><path class="cls-10" d="M16.81,38.38s4.44,1.36,7.46-.45L24,35.36l-6.88.22Z"/><path class="cls-5" d="M20.33,39.64a14.42,14.42,0,0,1-3.75-.52.78.78,0,0,1-.54-.84l.36-2.8a.76.76,0,0,1,.74-.67L24,34.59a.77.77,0,0,1,.79.7L25,37.86a.78.78,0,0,1-.38.73A8.43,8.43,0,0,1,20.33,39.64ZM17.66,37.8a9.84,9.84,0,0,0,5.8-.31l-.13-1.34-5.49.18Z"/></svg>