<svg width="21" height="18" viewBox="0 0 21 18" fill="none" xmlns="http://www.w3.org/2000/svg">
  <path d="M6.47316 17.125C4.148 17.125 1.98056 16.4487 0.15625 15.2818C1.70515 15.3821 4.43861 15.1421 6.13882 13.5203C3.58115 13.403 2.42769 11.4413 2.27724 10.603C2.49456 10.6869 3.531 10.7875 4.11609 10.5527C1.17393 9.81504 0.722573 7.23308 0.822874 6.44508C1.37453 6.83069 2.31067 6.96482 2.67844 6.93129C-0.0631175 4.96967 0.923175 2.01886 1.40796 1.38175C3.3754 4.10748 6.32399 5.63835 9.97177 5.7235C9.903 5.42185 9.86667 5.1078 9.86667 4.78524C9.86667 2.47035 11.7378 0.59375 14.0459 0.59375C15.2518 0.59375 16.3385 1.10604 17.1013 1.92548C17.9072 1.73664 19.12 1.29458 19.7129 0.912304C19.414 1.98533 18.4836 2.88045 17.9208 3.21221C17.9255 3.2235 17.9162 3.20088 17.9208 3.21221C18.4152 3.13743 19.7528 2.88036 20.2812 2.52184C20.0199 3.12465 19.0335 4.12693 18.224 4.68805C18.3746 11.3305 13.2925 17.125 6.47316 17.125Z" fill="#47ACDF"/>
</svg>
