
<svg width="86" height="86" viewBox="0 0 86 86" fill="none" xmlns="http://www.w3.org/2000/svg">
<g clip-path="url(#clip0_6912_78785)">
<path d="M43 5.375C22.3062 5.375 5.375 22.3062 5.375 43C5.375 63.6937 22.3062 80.625 43 80.625C63.6937 80.625 80.625 63.6937 80.625 43C80.625 22.3062 63.6937 5.375 43 5.375ZM40.0438 21.5H45.9562V51.0625H40.0438V21.5ZM43 67.1875C40.85 67.1875 38.9688 65.3063 38.9688 63.1562C38.9688 61.0062 40.85 59.125 43 59.125C45.15 59.125 47.0312 61.0062 47.0312 63.1562C47.0312 65.3063 45.15 67.1875 43 67.1875Z" fill="#F79009"/>
</g>
<defs>
<clipPath id="clip0_6912_78785">
<rect width="86" height="86" fill="white"/>
</clipPath>
</defs>
</svg>